<svg xmlns="http://www.w3.org/2000/svg" width="20" height="16" viewBox="0 0 20 16"><path fill="#5C7284" fill-rule="evenodd" d="M20,8.00000004 C20,8.60689644 19.5263158,9.10344792 18.9473696,9.10344792 L3.57894766,9.10344792 L8.34210616,14.1241383 C8.76315896,14.5655165 8.76315896,15.2551722 8.34210616,15.6965515 C8.15789544,15.8896545 7.89473725,16 7.60526339,16 C7.34210574,16 7.05263188,15.8896545 6.8684217,15.6689649 L0.315789505,8.77241341 C-0.105263168,8.3310341 -0.105263168,7.64137899 0.315789505,7.22758565 L6.8684217,0.331034493 C7.28947439,-0.110344831 7.94736915,-0.110344831 8.3684213,0.331034493 C8.78947409,0.772413767 8.78947409,1.46206879 8.3684213,1.90344814 L3.57894766,6.89655171 L18.9473696,6.89655171 C19.5263158,6.89655171 20,7.39310319 20,8.00000004 Z" transform="rotate(180 10 8)"/></svg>
